<svg height="111" viewBox="0 0 645 111" width="645" xmlns="http://www.w3.org/2000/svg"><g fill="#fff" fill-rule="nonzero"><g transform="translate(172.791908 .216046)"><path d="m78.3672227 21.7385466-7.1394555 79.9800054-32.0921181 8.89699-32.00375524-8.884459-7.13189386-79.9925364zm-14.6414361 16.35144h-49.142899l.8918378 9.810864h37.4993169l-.892702 10.0463541h-35.7316286l.8793071 9.810648h34.0015324l-1.1387783 12.723812-10.9420808 2.9533485-.0090739.0032407-10.9263094-2.9503239-.6984767-7.8245373h-9.848456l1.3744845 15.4042945 20.0965971 5.5789553.0451536-.0125306-.0007237-.0021253 20.079389-5.5642994.1475594-1.6575048 2.3054267-25.828513.2393789-2.6344647z"/><path d="m18.4431972 0h11.8825289v4.96905755h-6.9134713v4.96905755h6.9134713v4.9690576h-11.8825289z"/><path d="m32.7022319 0h11.8825289v4.32091961h-6.9134713v.86418392h6.9134713v9.93811507h-11.8825289v-4.5369656h6.9134714v-.86418388h-6.9134714z"/><path d="m46.9612666 0h11.882529v4.32091961h-6.9134714v.86418392h6.9134714v9.93811507h-11.882529v-4.5369656h6.9134714v-.86418388h-6.9134714z"/></g><path d="m78.6395977 21.8141016-7.1642696 80.2579864-32.2036582 8.927912-32.11498826-8.915338-7.15668164-80.2705604zm-14.6923243 16.4082714h-49.3137011l.2356582 2.6412364 2.4196699 27.1297441h34.119709l-1.1427364 12.7680352-10.9801113 2.9636133-.0001894.000371-.0089161.0028809-10.9642851-2.9605781-.7009043-7.8517324h-9.8826856l1.3792618 15.4578339 20.1664453 5.5983457.0453105-.0125742-.0002265-.0021758 20.1486777-5.5835957.1480723-1.6632656 2.3134394-25.9182832.240211-2.6436211h-35.8774981l-.899707-10.0812715h37.6730097l.197502-2.2128457.4485527-4.9908808z"/><g transform="translate(7.233861)"><path d="m.08281641 0h5.00302148v4.94296875h4.57658203v-4.94296875h5.00323828v14.9685234h-5.00302148v-5.01234371h-4.57658203v5.01234371h-5.00302149v-14.9685234z"/><path d="m21.244793 4.96378125h-4.4044453v-4.96378125h13.8142968v4.96378125h-4.4063965v10.00474215h-5.0032382v-10.00474215z"/><path d="m32.8471113 0h5.2167832l3.2090274 5.25949219 3.2057754-5.25949219h5.2187343v14.9685234h-4.9824257v-7.41922262l-3.442084 5.32214652h-.0860684l-3.4444687-5.32214652v7.41922262h-4.8952735z"/><path d="m52.1873438 0h5.004539v10.0207852h7.035709v4.9477382h-12.040248z"/></g><g transform="translate(345.583816 10)"><path d="m102.307323 45.5c0-6.7677346-8.4752864-13.1814645-21.4693367-17.1588101 2.998627-13.2439359 1.6659039-23.780778-4.2064074-27.15423338-1.3535469-.79130435-2.9361556-1.16613272-4.6645308-1.16613272v4.64370709c.9578947 0 1.7283752.18741419 2.373913.54141877 2.8320366 1.62425629 4.0606407 7.80892444 3.102746 15.76361554-.2290618 1.9574371-.6038902 4.0189932-1.0620137 6.1221968-4.0814646-.9995423-8.5377575-1.7700229-13.2231122-2.269794-2.8112128-3.8524028-5.7265446-7.350801-8.6627002-10.4118994 6.7885584-6.30961093 13.1606407-9.76636151 17.4919909-9.76636151v-4.64370709c-5.7265447 0-13.2231122 4.08146453-20.8029749 11.1615561-7.5798627-7.03844397-15.0764302-11.07826091-20.8029748-11.07826091v4.6437071c4.3105263 0 10.7034325 3.43592677 17.4919908 9.70389011-2.9153318 3.0610984-5.8306636 6.5386728-8.6002288 10.3910756-4.7061785.4997711-9.1624714 1.2702517-13.2439359 2.2906178-.4789474-2.0823799-.832952-4.1022883-1.0828375-6.0389016-.9787186-7.9546911.2290617-14.13935926 3.0402746-15.78443935.6247139-.37482837 1.4368421-.54141876 2.3947368-.54141876v-4.6437071c-1.7491991 0-3.3318078.37482838-4.7061785 1.16613273-5.8514874 3.37345537-7.1633867 13.88947368-4.1439359 27.09176198-12.95240277 3.9981694-21.38604121 10.3910755-21.38604121 17.1379863 0 6.7677346 8.47528604 13.1814645 21.46933641 17.1588101-2.998627 13.2439359-1.6659039 23.780778 4.2064073 27.1542334 1.3535469.7913043 2.9361556 1.1661327 4.6853547 1.1661327 5.7265446 0 13.2231121-4.0814645 20.8029748-11.1615561 7.5798627 7.038444 15.0764302 11.0782609 20.8029748 11.0782609 1.7491991 0 3.3318078-.3748284 4.7061785-1.1661327 5.8514874-3.3734554 7.1633868-13.8894737 4.143936-27.091762 12.9107551-3.9773456 21.3443939-10.3910755 21.3443939-17.1379863zm-27.1125862-13.8894737c-.7704805 2.68627-1.7283752 5.4558353-2.8112128 8.2254005-.8537757-1.6659039-1.7491991-3.3318078-2.7279176-4.9977117-.9578947-1.6659039-1.9782609-3.2901602-2.998627-4.8727689 2.9569794.4372998 5.8098398.9787186 8.5377574 1.6450801zm-9.5372997 22.1773456c-1.6242563 2.8112128-3.2901602 5.476659-5.0185355 7.954691-3.102746.2707094-6.2471396.416476-9.412357.416476-3.1443936 0-6.2887872-.1457666-9.3707094-.3956522-1.7283752-2.478032-3.4151029-5.1226544-5.0393592-7.9130435-1.5826087-2.7279176-3.0194508-5.4974828-4.3313501-8.2878718 1.2910755-2.790389 2.7487414-5.580778 4.3105263-8.3086957 1.6242563-2.8112128 3.2901602-5.476659 5.0185354-7.954691 3.102746-.2707094 6.2471396-.416476 9.412357-.416476 3.1443936 0 6.2887872.1457666 9.3707094.3956522 1.7283753 2.478032 3.415103 5.1226544 5.0393593 7.9130434 1.5826087 2.7279177 3.0194508 5.4974829 4.3313501 8.2878719-1.3118993 2.790389-2.7487414 5.580778-4.3105263 8.3086957zm6.7260869-2.7070939c1.1244852 2.790389 2.0823799 5.5807781 2.8736842 8.2878719-2.7279176.6663615-5.6016018 1.2286041-8.579405 1.6659039 1.0203661-1.6034325 2.0407323-3.2485126 2.998627-4.9352403.9578947-1.6659039 1.8533181-3.3526316 2.7070938-5.0185355zm-21.1153318 22.2189932c-1.9366133-1.9990847-3.8732265-4.2272312-5.789016-6.6636156 1.8741419.0832952 3.7899314.1457666 5.7265446.1457666 1.9574371 0 3.8940504-.0416476 5.789016-.1457666-1.8741418 2.4363844-3.8107551 4.6645309-5.7265446 6.6636156zm-15.4929062-12.2652174c-2.9569794-.4372998-5.8098398-.9787186-8.5377574-1.6450801.7704806-2.68627 1.7283753-5.4558353 2.8112128-8.2254005.8537758 1.6659039 1.7491991 3.3318078 2.7279176 4.9977117.9787186 1.6659039 1.9782609 3.2901602 2.998627 4.8727689zm15.3887872-43.334325c1.9366133 1.9990847 3.8732266 4.2272312 5.789016 6.6636156-1.8741418-.0832952-3.7899313-.1457666-5.7265446-.1457666-1.957437 0-3.8940503.0416476-5.789016.1457666 1.8741419-2.4363844 3.8107552-4.6645309 5.7265446-6.6636156zm-15.409611 12.2652174c-1.0203661 1.6034325-2.0407322 3.2485126-2.998627 4.9352403-.9578947 1.6659039-1.853318 3.3318078-2.7070938 4.9977117-1.1244851-2.790389-2.0823798-5.5807781-2.8736842-8.2878719 2.7279176-.6455377 5.6016018-1.2077803 8.579405-1.6450801zm-18.8455377 26.0713959c-7.37162473-3.1443936-12.14027461-7.2675057-12.14027461-10.5368421s4.76864988-7.4132723 12.14027461-10.5368421c1.7908467-.7704806 3.7482837-1.4576659 5.7681922-2.1032037 1.1869565 4.0814646 2.7487414 8.3295195 4.6853547 12.6816934-1.9157895 4.3313501-3.4567506 8.5585812-4.6228833 12.619222-2.0615561-.6455378-4.0189931-1.3535469-5.8306636-2.1240275zm11.2032036 29.7572082c-2.8320366-1.6242562-4.0606407-7.8089244-3.1027459-15.7636155.2290617-1.9574371.6038901-4.0189932 1.0620137-6.1221968 4.0814645.9995423 8.5377574 1.7700229 13.2231121 2.269794 2.8112128 3.8524028 5.7265446 7.350801 8.6627002 10.4118994-6.7885583 6.3096109-13.1606407 9.7663615-17.4919908 9.7663615-.9370709-.0208238-1.7283753-.208238-2.3530893-.5622426zm49.3940504-15.8677345c.9787185 7.9546911-.2290618 14.1393593-3.0402746 15.7844393-.624714.3748284-1.4368421.5414188-2.3947369.5414188-4.3105263 0-10.7034324-3.4359268-17.4919908-9.7038901 2.9153318-3.0610984 5.8306636-6.5386728 8.6002288-10.3910756 4.7061785-.4997711 9.1624714-1.2702517 13.243936-2.2906178.4789473 2.1032037.8537757 4.1231121 1.0828375 6.0597254zm8.0171625-13.8894737c-1.7908467.7704806-3.7482838 1.4576659-5.7681923 2.1032037-1.1869565-4.0814646-2.7487414-8.3295195-4.6853546-12.6816934 1.9157894-4.3313501 3.4567505-8.5585812 4.6228832-12.619222 2.0615561.6455378 4.0189932 1.3535469 5.8514875 2.1240275 7.3716247 3.1443936 12.1402746 7.2675057 12.1402746 10.5368421-.0208238 3.2693364-4.7894737 7.4132723-12.1610984 10.5368421z"/><circle cx="51.205721" cy="45.5" r="9.516476"/></g><path d="m77.0670758 85.221203c-12.0352031 6.9524122-28.5832849 7.6667364-45.2319394.5312303-13.4800979-5.7352242-24.66507458-15.7744454-31.8351364-27.2448939 3.4416503 2.8676121 7.45682303 5.1627333 11.758757 7.1690303 17.1932945 8.0587121 34.3829788 7.5068515 46.4800727.0206303-.0077364-.0077364-.0128939-.0128939-.0180515-.0206303-17.2082515-13.1930788-31.8351364-30.4013303-42.733094-44.4531455-2.295379-2.2946054-4.0162042-5.1627333-5.73702935-7.7438421 13.19282095 12.0455182 34.13025755 27.244894 41.58553335 31.5488909-15.7718667-16.6357606-29.8262606-37.28411512-29.2537697-36.71162421 24.9523515 25.23859701 48.1846515 39.57923641 48.1846515 39.57923641.7684788.4332363 1.3616.7942666 1.8386758 1.1166151.5028636-1.2790788.9438363-2.6071545 1.3151818-3.9842273 4.0151727-14.6268848-.5724909-31.2626454-10.6117121-45.02821512 23.2297212 14.05310452 36.9978697 40.43797272 31.2600666 62.52271212-.1495697.5957-.3120333 1.1836636-.4873909 1.7613121.0670485.0799424.134097.1624637.2011455.2475637 11.4704483 14.3406394 8.3165913 29.5400151 6.8827853 26.672403-6.2226156-12.1770364-17.7420611-8.4532667-23.5984884-5.9827879z" transform="translate(542.375724 9)"/></g></svg>