<?xml version="1.0" encoding="UTF-8"?>
<svg width="243px" height="256px" viewBox="0 0 243 256" version="1.1" xmlns="http://www.w3.org/2000/svg" xmlns:xlink="http://www.w3.org/1999/xlink">
    <!-- Generator: Sketch 57.1 (83088) - https://sketch.com -->
    <title>Combined Shape Copy 2</title>
    <desc>Created with Sketch.</desc>
    <g id="Page-1" stroke="none" stroke-width="1" fill="none" fill-rule="evenodd">
        <path d="M172.579515,52.0953045 L238.017257,185.94048 C249.661248,209.75602 239.794257,238.50165 215.978716,250.145641 C209.47739,253.324296 202.34232,254.991368 195.107431,255.023322 C186.471927,254.937405 158.10962,252.518827 149.412461,224.999727 L149.385062,225.007037 C145.105118,213.985695 134.395996,206.172831 121.862082,206.172831 C109.46747,206.172831 98.8573148,213.812995 94.4841803,224.640756 L94.3967552,224.859704 L94.4350613,224.73736 C95.1760594,222.305271 92.3041857,229.869011 91.8416302,231.241228 L91.8237552,231.291704 L91.8005972,231.341902 C78.8938805,257.249801 46.034312,254.973952 46.034312,254.973952 L46.0337552,255.024704 L46.0085239,255.024773 C37.4660819,253.230049 29.6958134,248.160484 22.6977185,239.816077 C12.6989039,227.893665 13.9239763,204.491455 25.6484539,192.367701 C30.9677571,186.867249 37.1651752,181.257046 42.771301,177.286839 C58.6995074,166.006628 121.662212,138.720238 122.504219,138.257598 C167.269487,113.661396 183.961252,84.9406317 172.579515,52.0953045 Z M92.0667552,230.790704 L92.0540581,230.823505 C91.7803306,231.494164 91.7298889,231.580775 91.8214489,231.301827 L91.8237552,231.291704 L92.0667552,230.790704 Z M94.3533741,224.999727 C93.7337703,226.956061 93.0145704,228.785542 92.2099564,230.49635 L92.0667552,230.790704 L92.1118049,230.681521 C92.4561798,229.832085 93.0943134,228.213763 94.1445316,225.508502 L94.334166,225.019755 L94.334166,225.019755 L94.3970208,224.860794 C94.3834143,224.9045 94.3688734,224.950789 94.3533741,224.999727 Z M138.377059,5.18269172 C147.970127,9.87297356 155.725318,17.6281643 160.4156,27.2212327 L167.582348,41.8773448 C170.767856,62.4778684 165.7066,79.436709 152.398578,92.7538667 C138.718934,106.442903 115.237033,119.406466 81.9528772,131.644556 L65.8181903,138.257598 C50.5362151,145.023583 41.1322596,149.255191 37.606324,150.952423 C12.9305187,162.830282 3.08044708,174.505111 0.0937551522,178.734324 L74.171898,27.2212327 C85.8158886,3.40569196 114.561518,-6.46129891 138.377059,5.18269172 Z" id="Combined-Shape-Copy-2" fill="#FFFFFF"></path>
    </g>
</svg>