<?xml version="1.0" encoding="UTF-8"?>
<svg width="130px" height="115px" viewBox="0 0 130 115" version="1.1" xmlns="http://www.w3.org/2000/svg" xmlns:xlink="http://www.w3.org/1999/xlink">
    <!-- Generator: Sketch 57.1 (83088) - https://sketch.com -->
    <title>Group 17</title>
    <desc>Created with Sketch.</desc>
    <g id="Page-1" stroke="none" stroke-width="1" fill="none" fill-rule="evenodd">
        <g id="Group-17" transform="translate(0.188114, 0.300498)" fill="#FFFFFF">
            <path d="M60.5410233,108.205006 L63.6360062,111.299989 L60.7262222,114.209773 L57.6312393,111.11479 L60.5410233,108.205006 Z M103.150941,65.7479659 L106.125719,68.9599195 L102.240961,72.7833664 L110.002197,90.9462164 L83.8369019,90.9462164 L66.5781121,108.205006 L63.6360062,105.2629 L103.150941,65.7479659 Z M94.4549822,0 L97.2155201,3.12568973 L80.1225007,20.1654755 L83.3549359,27.7589154 L66.9429804,44.1708709 L63.8416828,36.492273 L60.40493,39.8187185 L53.409633,57.6836679 L72.2634195,57.6836679 L69.2403947,50.1582914 L91.2811559,28.1175303 L94.0203944,30.8567688 L87.4427052,37.434458 L96.358446,58.4788709 L120.400878,34.4364386 L123.580583,37.434458 L80.6853678,80.1097424 L79.0302448,75.648473 L46.7118798,75.648473 L40.4993223,90.9462164 L16.049523,90.9462164 L25.6304148,68.7533302 L94.4549822,0 Z M2.96492858,77.4447626 L6.05991147,80.5397455 L3.15012745,83.4495295 L0.0551445565,80.3545466 L2.96492858,77.4447626 Z M74.2980425,6.29329601 L75.9589134,10.2264003 L8.97113392,77.4447626 L6.05991147,74.6395503 L35.684965,44.676209 L52.0062461,6.29329601 L74.2980425,6.29329601 Z M126.063001,28.9853029 L129.157984,32.0802858 L126.2482,34.9900699 L123.153217,31.895087 L126.063001,28.9853029 Z M97.2708659,22.1030948 L100.365849,25.1980776 L97.4560648,28.1078617 L94.3610819,25.0128788 L97.2708659,22.1030948 Z" id="Combined-Shape"></path>
        </g>
    </g>
</svg>